<?xml version="1.0" encoding="UTF-8"?>
<svg version="1.1" xmlns="http://www.w3.org/2000/svg" width="16" height="16">
<path d="M0 0 C0.86625 -0.00773438 1.7325 -0.01546875 2.625 -0.0234375 C5 0.375 5 0.375 6.7890625 1.5859375 C8.39038277 3.95175906 8.40035579 5.53515158 8.375 8.375 C8.38273437 9.24125 8.39046875 10.1075 8.3984375 11 C8 13.375 8 13.375 6.7890625 15.1640625 C4.42324094 16.76538277 2.83984842 16.77535579 0 16.75 C-0.86625 16.75773437 -1.7325 16.76546875 -2.625 16.7734375 C-5 16.375 -5 16.375 -6.7890625 15.1640625 C-8.39038277 12.79824094 -8.40035579 11.21484842 -8.375 8.375 C-8.38273438 7.50875 -8.39046875 6.6425 -8.3984375 5.75 C-8 3.375 -8 3.375 -6.7890625 1.5859375 C-4.42324094 -0.01538277 -2.83984842 -0.02535579 0 0 Z " fill="#8AE234" transform="translate(8,-0.375)"/>
<path d="M0 0 C0 5.28 0 10.56 0 16 C-5 16 -5 16 -6.7890625 14.8125 C-8.38009461 12.43108419 -8.40042889 10.84803599 -8.375 8 C-8.38273438 7.13375 -8.39046875 6.2675 -8.3984375 5.375 C-8 3 -8 3 -6.7890625 1.1875 C-5 -0 -5 -0 0 0 Z " fill="#EF2929" transform="translate(8,0)"/>
</svg>
