<svg version="1.1" id="lua-original-Ebene_1" xmlns="http://www.w3.org/2000/svg" viewBox="0 0 128 128" xml:space="preserve"><style/><path fill="navy" d="M127.3 15.1c0-7.9-6.4-14.3-14.3-14.3S98.6 7.1 98.6 15.1 105 29.4 113 29.4s14.3-6.4 14.3-14.3"/><path fill="navy" d="M64 15.1c-27 0-49 21.9-49 49s21.9 49 49 49 49-21.9 49-49-22-49-49-49zm6 28.6c0-7.9 6.4-14.3 14.3-14.3s14.3 6.4 14.3 14.3S92.2 58 84.3 58 70 51.6 70 43.7z"/><path fill="gray" d="M66.3 128l-.1-1.5c1.8-.1 3.6-.2 5.4-.4l.2 1.5c-1.8.2-3.7.3-5.5.4zm-5.6 0c-1.9-.1-3.7-.3-5.6-.5l.2-1.5c1.8.2 3.6.4 5.4.5v1.5zm16.6-1.4l-.3-1.4c1.8-.4 3.5-.8 5.3-1.4l.4 1.4c-1.7.6-3.5 1.1-5.4 1.4zm-27.7-.2c-1.8-.4-3.6-.9-5.4-1.5l.5-1.4c1.7.6 3.5 1 5.3 1.5l-.4 1.4zm38.4-3l-.6-1.4c1.7-.7 3.3-1.4 5-2.3l.7 1.3c-1.7.9-3.4 1.7-5.1 2.4zm-49-.4c-1.7-.7-3.4-1.5-5-2.4l.7-1.3c1.6.9 3.3 1.6 4.9 2.4L39 123zm59-4.7l-.8-1.2c1.5-1 3-2 4.5-3.1l.9 1.2c-1.5 1.1-3.1 2.1-4.6 3.1zm-68.8-.6c-1.6-1-3.1-2.1-4.5-3.2l.9-1.2c1.4 1.1 2.9 2.2 4.4 3.2l-.8 1.2zm77.7-6.1l-1-1.1c1.3-1.2 2.7-2.5 3.9-3.8l1.1 1c-1.3 1.3-2.7 2.6-4 3.9zm-86.5-.7c-1.4-1.3-2.7-2.6-3.9-4l1.1-1c1.2 1.3 2.5 2.7 3.8 3.9l-1 1.1zm94.1-7.5l-1.2-.9c1.1-1.4 2.2-2.9 3.2-4.4l1.2.8c-1 1.5-2.1 3.1-3.2 4.5zm-101.6-.8c-1.1-1.5-2.2-3-3.2-4.6l1.2-.8c1 1.5 2 3 3.1 4.5l-1.1.9zm107.7-8.5l-1.3-.7c.9-1.6 1.6-3.3 2.4-4.9l1.3.5-2.4 5.1zM7 93.1c-.8-1.7-1.6-3.4-2.3-5.1l1.3-.5c.7 1.7 1.4 3.3 2.3 5l-1.3.6zm117.9-9.3l-1.4-.5c.6-1.7 1-3.5 1.5-5.3l1.4.3c-.4 1.9-.9 3.7-1.5 5.5zm-122.1-1c-.5-1.8-1-3.6-1.4-5.4l1.4-.3c.4 1.8.8 3.5 1.4 5.3l-1.4.4zm124.6-9.9l-1.5-.2c.2-1.8.4-3.6.5-5.4l1.5.1c0 1.8-.2 3.7-.5 5.5zM.5 71.9C.2 70 .1 68.2 0 66.3l1.5-.1c.1 1.8.2 3.6.4 5.4l-1.4.3zm126-10.1c-.1-1.8-.2-3.6-.4-5.4l1.5-.2c.2 1.8.4 3.7.4 5.6h-1.5zm-125-1L0 60.7c.1-1.9.3-3.7.5-5.6l1.5.3c-.2 1.8-.4 3.6-.5 5.4zM125.2 51c-.4-1.8-.8-3.6-1.4-5.3l1.4-.4c.5 1.8 1 3.6 1.4 5.4l-1.4.3zM3 50l-1.4-.3c.4-1.8.9-3.6 1.5-5.4l1.4.5C3.9 46.5 3.4 48.2 3 50zm119-9.4c-.7-1.7-1.4-3.4-2.3-5l1.3-.7c.8 1.7 1.6 3.4 2.3 5.1l-1.3.6zm-115.6-1L5 39.1c.7-1.7 1.5-3.4 2.4-5l1.3.7c-.8 1.5-1.6 3.2-2.3 4.8zm5.1-9.6l-1.2-.8c1-1.6 2.1-3.1 3.2-4.5l1.2.9c-1.2 1.4-2.2 2.9-3.2 4.4zm6.7-8.6l-1.1-1c1.3-1.4 2.6-2.7 4-3.9l1 1.1c-1.4 1.2-2.7 2.5-3.9 3.8zm8.1-7.3l-.9-1.2c1.5-1.1 3-2.2 4.6-3.2l.8 1.2c-1.6 1.1-3.1 2.1-4.5 3.2zm67-5.4c-1.6-.8-3.3-1.6-4.9-2.3l.5-1.4c1.7.7 3.4 1.5 5 2.4l-.6 1.3zm-57.8-.4L34.8 7c1.7-.8 3.4-1.6 5.1-2.3l.6 1.3c-1.7.7-3.4 1.5-5 2.3zm47.7-3.8c-1.7-.6-3.5-1-5.3-1.4l.3-1.4c1.8.4 3.6.9 5.4 1.5l-.4 1.3zm-37.6-.3l-.4-1.4c1.8-.5 3.6-1 5.4-1.4l.3 1.4c-1.8.4-3.6.9-5.3 1.4zm27-2.2c-1.8-.2-3.6-.4-5.4-.5l.1-1.5c1.9.1 3.7.3 5.6.5L72.6 2zm-16.3-.1L56.1.4c1.8-.2 3.7-.4 5.6-.4l.1 1.5c-1.9 0-3.7.2-5.5.4z"/></svg>