<svg xmlns="http://www.w3.org/2000/svg" viewBox="0 0 128 128"><path d="M62.271 10.88c-.189.11-.982 1.248-1.763 2.529-1.96 3.217-1.982 3.219-4.615.448-1.713-1.802-2.127-2.132-2.679-2.128-.359.002-.812.124-1.008.271-.195.147-.748 1.317-1.228 2.6-1.099 2.939-1.152 3.034-1.761 3.151-.375.071-1.097-.331-2.828-1.574-1.278-.919-2.532-1.67-2.786-1.67-1.054 0-1.351.576-1.853 3.593-.638 3.836-.616 3.823-4.074 2.252-1.396-.633-2.72-1.152-2.943-1.152-.223 0-.646.24-.939.533-.532.533-.533.535-.388 3.468l.146 2.936-.555.297c-.492.263-.831.231-3.009-.284-2.843-.671-3.443-.653-4.019.122l-.421.566.565 2.421c.31 1.331.609 2.613.665 2.848.055.234-.04.609-.212.832-.284.367-.586.4-3.217.36-4.453-.07-4.706.312-2.866 4.328.585 1.275 1.064 2.433 1.064 2.572 0 .734-.585 1.001-3.098 1.411-1.406.229-2.628.417-2.716.417-.088 0-.352.192-.586.426-.765.765-.548 1.483 1.187 3.932 2.161 3.05 2.157 3.061-1.413 4.427-4.06 1.553-4.142 1.936-1.051 4.868 2.879 2.73 2.882 2.69-.377 4.739-2.469 1.551-2.507 1.588-2.57 2.429-.076 1.023-.058 1.041 2.89 2.842 2.915 1.78 2.915 1.834.054 4.541-3.077 2.91-2.982 3.335 1.081 4.868 3.55 1.339 3.555 1.355 1.39 4.405-1.227 1.729-1.618 2.449-1.618 2.983 0 .999.52 1.254 3.627 1.776 2.617.441 3.2.7 3.2 1.422 0 .148-.48 1.316-1.067 2.594-1.826 3.977-1.618 4.308 2.704 4.308 4.025 0 3.918-.123 3.051 3.507-.654 2.736-.664 3.26-.072 3.851.453.454 1.307.403 3.978-.236 2.04-.487 2.398-.521 2.871-.268l.54.289-.146 2.935c-.145 2.934-.144 2.936.388 3.469.293.293.722.533.952.533.23 0 1.554-.516 2.943-1.147 3.447-1.565 3.425-1.578 4.061 2.246.504 3.031.798 3.594 1.874 3.594.267 0 1.494-.72 2.728-1.6 2.167-1.546 2.729-1.788 3.306-1.421.149.094.727 1.364 1.284 2.822.819 2.144 1.119 2.702 1.575 2.92.868.416 1.405.082 3.445-2.14 2.463-2.683 2.564-2.67 4.575.589 2.221 3.598 2.796 3.59 5.073-.073 1.962-3.156 1.939-3.154 4.591-.384 1.761 1.838 2.136 2.131 2.73 2.131.379 0 .832-.142 1.005-.316.174-.174.75-1.459 1.28-2.855.53-1.397 1.079-2.613 1.221-2.703.561-.357 1.142-.106 3.306 1.43 1.274.905 2.473 1.6 2.758 1.6 1.058 0 1.44-.751 1.88-3.703.376-2.517.452-2.758.947-3.009.487-.247.779-.164 3.063.873 1.389.63 2.713 1.146 2.943 1.146.23 0 .666-.247.967-.549l.549-.548-.151-2.815c-.144-2.688-.131-2.832.298-3.22.441-.399.486-.397 2.952.166 2.986.682 3.543.7 4.104.139.548-.548.542-.668-.208-3.831-.841-3.548-.954-3.422 3.088-3.422 2.755 0 3.062-.039 3.413-.426.586-.648.447-1.39-.732-3.903-.595-1.266-1.078-2.418-1.074-2.56.02-.747.607-1.002 3.32-1.443 1.66-.269 2.902-.581 3.127-.784.754-.681.477-1.567-1.244-3.98-2.157-3.024-2.148-3.053 1.306-4.326 4.136-1.524 4.254-2.032 1.159-4.973-2.867-2.724-2.868-2.709.272-4.637 3.796-2.33 3.802-2.855.067-5.173-3.212-1.993-3.21-1.965-.331-4.699 3.088-2.934 3.004-3.318-1.057-4.871-3.584-1.371-3.595-1.405-1.417-4.394 1.297-1.78 1.618-2.371 1.618-2.981 0-1.066-.478-1.305-3.622-1.813-2.627-.424-3.205-.682-3.205-1.429 0-.142.48-1.285 1.067-2.542 1.149-2.461 1.31-3.446.66-4.035-.349-.316-.817-.361-3.321-.32-2.62.044-2.955.007-3.318-.358-.397-.399-.393-.455.227-3.042.76-3.17.763-3.247.138-3.834-.634-.596-1.03-.586-3.941.099-2.121.5-2.472.533-2.954.275l-.547-.293.151-2.926.152-2.925-.547-.547c-.301-.301-.728-.547-.95-.547-.221 0-1.538.523-2.926 1.161-2.318 1.067-2.567 1.138-3.068.876-.5-.262-.583-.52-1.01-3.127-.493-3.016-.798-3.603-1.869-3.603-.254 0-1.513.755-2.798 1.678-2.11 1.516-2.393 1.659-2.919 1.476-.435-.152-.688-.483-.997-1.306-.229-.606-.667-1.774-.975-2.595-.622-1.656-.969-2.027-1.901-2.027-.52 0-.991.374-2.679 2.127-2.653 2.756-2.663 2.755-4.614-.445-.78-1.279-1.595-2.421-1.812-2.537-.488-.262-1.062-.261-1.511.002m2.418 9.635c2.311 1.645 1.082 5.512-1.752 5.512-2.75 0-4.135-3.313-2.171-5.194 1.108-1.062 2.697-1.191 3.923-.318m-2.906 10.214c1.515.576 2.137.23 5.596-3.104l2.599-2.506 1.1.146c3.45.458 10.312 3.472 14.255 6.261 3.623 2.564 8.438 7.786 10.49 11.377l.439.769-1.944 4.38c-1.07 2.409-1.945 4.633-1.945 4.944 0 .717.47 1.851.923 2.226.191.159 2.006 1.033 4.033 1.942l3.684 1.654.145.937c.187 1.221.212 4.22.042 5.072l-.133.666h-2.103c-2.439 0-2.251-.218-2.383 2.774-.096 2.169-.62 3.368-1.812 4.144-1.942 1.267-5.149 1.037-6.509-.466-.209-.231-.615-1.392-.903-2.581-.841-3.473-1.971-5.423-4.241-7.32-.717-.599-1.303-1.158-1.303-1.243 0-.084.788-.748 1.752-1.473 3.51-2.646 5.528-5.726 5.75-8.777.423-5.819-4.213-11.243-11.109-13.001-1.635-.417-2.333-.43-22.56-.43-11.48 0-20.873-.075-20.873-.166 0-.215 2.551-2.691 4.054-3.933 4.127-3.412 9.488-6.097 15.04-7.531l1.92-.497 2.728 2.766c1.501 1.521 2.972 2.857 3.268 2.97M27.432 48.526c1.257.823 1.772 2.891 1.03 4.134-1.148 1.924-4.056 2.005-5.205.145-1.671-2.702 1.547-6.001 4.175-4.279m74.05.105c3.288 2.005.74 6.937-2.78 5.38-2.35-1.04-2.425-4.252-.127-5.424.959-.489 2.061-.472 2.907.044M37.12 60.907v12.266H26.276l-.43-1.866c-.846-3.675-1.202-7.477-.989-10.591l.149-2.188 3.728-1.672c2.339-1.048 3.843-1.847 4.037-2.144.848-1.293.767-2.217-.423-4.845l-.556-1.227h5.328v12.267m31.22-11.733c2.322.604 3.549 1.833 3.552 3.556.002 1.265-.625 2.059-2.18 2.761-1.101.498-1.276.51-8.219.578l-7.093.068v-7.284h6.355c4.964 0 6.625.07 7.585.321m-2.396 17.602c1.151.32 2.512 1.32 3.21 2.359.733 1.092 1.162 2.512 2.178 7.216.858 3.976 1.41 5.276 2.956 6.968 1.915 2.095 1.471 2.014 11.037 2.014 4.581 0 8.328.073 8.328.163 0 .161-3.155 3.891-3.291 3.891-.039 0-1.687-.345-3.662-.767-5.577-1.191-5.778-1.051-7.058 4.926l-.823 3.84-.743.366c-1.24.612-5.27 1.872-7.359 2.302-3.452.71-7.209.95-10.511.671-5.629-.477-13.083-2.661-13.374-3.92-.062-.267-.437-1.995-.832-3.841-.396-1.846-.877-3.597-1.069-3.891-.923-1.408-1.894-1.495-6.164-.55-1.617.358-3.028.65-3.136.65-.203 0-3.204-3.47-3.204-3.704 0-.073 7.128-.158 15.84-.188l15.84-.054.057-5.627c.04-3.973-.015-5.714-.187-5.92-.192-.232-1.214-.293-4.91-.293H54.4V66.56l5.387.001c2.962.001 5.733.098 6.157.215M41.536 92.365c2.519 1.535 1.311 5.557-1.668 5.554-3.055-.002-4.187-3.987-1.584-5.575.861-.525 2.374-.515 3.252.021m46.126.168c1.235.905 1.646 2.788.881 4.042-2.009 3.295-7.033.676-5.355-2.791.825-1.703 3.018-2.317 4.474-1.251" fill-rule="evenodd"/></svg>